<?xml version="1.0" encoding="UTF-8" standalone="no"?>
<!-- Created with Inkscape (http://www.inkscape.org/) -->

<svg
   xmlns:dc="http://purl.org/dc/elements/1.1/"
   xmlns:cc="http://creativecommons.org/ns#"
   xmlns:rdf="http://www.w3.org/1999/02/22-rdf-syntax-ns#"
   xmlns:svg="http://www.w3.org/2000/svg"
   xmlns="http://www.w3.org/2000/svg"
   xmlns:sodipodi="http://sodipodi.sourceforge.net/DTD/sodipodi-0.dtd"
   xmlns:inkscape="http://www.inkscape.org/namespaces/inkscape"
   width="32"
   height="32"
   viewBox="0 0 32 32"
   version="1.1"
   id="svg8"
   inkscape:version="0.92+devel 15697 custom"
   sodipodi:docname="preferences-desktop-plasma.svg">
  <defs
     id="ol-defs">
    <style
       id="current-color-scheme">      .ColorScheme-Text {
        color:#d0d0d0;
        stop-color:#d0d0d0;
      }
      .ColorScheme-Background {
        color:#212121;
        stop-color:#212121;
      }
      .ColorScheme-Highlight {
        color:#0039a9;
        stop-color:#0039a9;
      }
      .ColorScheme-ViewText {
        color:#d0d0d0;
        stop-color:#d0d0d0;
      }
      .ColorScheme-ViewBackground {
        color:#19191b;
        stop-color:#19191b;
      }
      .ColorScheme-ViewHover {
        color:#005cc7;
        stop-color:#005cc7;
      }
      .ColorScheme-ViewFocus{
        color:#002466;
        stop-color:#002466;
      }
      .ColorScheme-ButtonText {
        color:#d0d0d0;
        stop-color:#d0d0d0;
      }
      .ColorScheme-ButtonBackground {
        color:#232323;
        stop-color:#232323;                             
      }                                                 
      .ColorScheme-ButtonHover {                        
        color:#005cc7;                                  
        stop-color:#005cc7;                             
      }                                                 
      .ColorScheme-ButtonFocus{                         
        color:#0039a9;                                  
        stop-color:#0039a9;                             
      }</style>
  </defs>
  <sodipodi:namedview
     id="base"
     pagecolor="#002266"
     bordercolor="#ffffff"
     borderopacity="0.46666667"
     inkscape:pageopacity="0"
     inkscape:pageshadow="2"
     inkscape:zoom="12.859375"
     inkscape:cx="31.399413"
     inkscape:cy="11.170575"
     inkscape:document-units="px"
     inkscape:current-layer="g4267"
     inkscape:document-rotation="0"
     showgrid="false"
     inkscape:showpageshadow="false"
     borderlayer="true"
     units="px"
     fit-margin-top="0"
     fit-margin-left="0"
     fit-margin-right="0"
     fit-margin-bottom="0"
     inkscape:window-width="1920"
     inkscape:window-height="1054"
     inkscape:window-x="0"
     inkscape:window-y="0"
     inkscape:window-maximized="1"
     inkscape:snap-page="true" />
  <metadata
     id="metadata5">
    <rdf:RDF>
      <cc:Work
         rdf:about="">
        <dc:format>image/svg+xml</dc:format>
        <dc:type
           rdf:resource="http://purl.org/dc/dcmitype/StillImage" />
        <dc:title />
      </cc:Work>
    </rdf:RDF>
  </metadata>
  <g
     id="g4267"
     inkscape:label="#preferences-desktop-plasma"
     sodipodi:insensitive="true">
    <rect
       inkscape:label="#boundary"
       y="0"
       x="0"
       height="32"
       width="32"
       id="rect4264"
       style="fill:none;fill-opacity:0.74651441;stroke-width:23.61599922;stroke-opacity:0.3596773"
       sodipodi:insensitive="true" />
    <path
       id="path4857"
       d="M 16,3.2000001 C 8.9307552,3.2000001 3.2000001,8.9307552 3.2,16 3.2,23.069245 8.9307552,28.8 16,28.8 23.069245,28.8 28.8,23.069245 28.8,16 28.8,8.9307552 23.069245,3.2000001 16,3.2000001 Z m -1.262992,4.2624823 c 0.301495,0.00423 0.589488,0.125709 0.80287,0.3387464 0.453751,0.4528747 0.453751,1.1880595 0,1.6409342 -0.452624,0.4522845 -1.186112,0.4522845 -1.638736,0 -0.453751,-0.4528747 -0.453751,-1.1880595 0,-1.6409342 0.221472,-0.2211193 0.52294,-0.3432929 0.835866,-0.3387464 z m 4.347663,3.3932236 4.688674,4.688674 -4.688674,4.688674 -1.87512,-1.87512 2.708701,-2.710448 -2.813553,-2.811807 z m -8.210186,2.651418 c 0.450229,0.0065 0.880226,0.1904 1.198807,0.512517 0.676222,0.684567 0.676222,1.794435 0,2.479001 -0.676427,0.68555 -1.773978,0.68555 -2.4504045,0 -0.6762223,-0.684566 -0.6762223,-1.794434 0,-2.479001 0.3315175,-0.33522 0.7830815,-0.520132 1.2515975,-0.512517 z m 4.051763,6.528564 c 0.603298,0.0089 1.179326,0.252822 1.605744,0.679692 0.904494,0.905279 0.904494,2.372192 0,3.277472 -0.905531,0.90596 -2.374143,0.90596 -3.279674,0 -0.904493,-0.90528 -0.904493,-2.372193 0,-3.277472 0.443121,-0.443583 1.047004,-0.688787 1.67393,-0.679692 z"
       style="opacity:0.6;fill:#ffffff;stroke-width:2.67636347;stroke-linecap:round;stroke-linejoin:round"
       inkscape:connector-curvature="0"
       inkscape:label="#glyph"
       sodipodi:nodetypes="sssssccccccccccccccccccccccccc" />
  </g>
</svg>
